; NON-PLATED HOLES START AT T1
; THROUGH (PLATED) HOLES START AT T100
M48
INCH
T1C0.128000
T2C0.086614
T100C0.038000
T101C0.031496
T102C0.046111
T103C0.040000
T104C0.035433
T105C0.015748
%
T1
X013099Y018275
X017099Y018275
T2
X002549Y001675
X001449Y017875
X039149Y017575
X039349Y002275
T100
X010249Y015575
X033349Y004475
X033349Y007075
X014549Y003175
X031349Y007075
X009249Y015575
X030349Y007075
X029349Y007075
X032349Y007075
X010549Y003175
X032349Y004475
X029349Y004475
X011549Y003175
X013549Y003175
X031349Y004475
X030349Y004475
T101
X017049Y001275
X001049Y008276
X001049Y001275
X017049Y008276
T102
X025649Y013475
X027649Y013475
X037049Y013475
X021149Y013475
X036049Y013475
X031649Y013475
X029649Y013475
X022149Y013475
X020149Y013475
X030649Y013475
X032649Y013475
X035049Y013475
X024649Y013475
X026649Y013475
X034049Y013475
X023149Y013475
T103
X004549Y014975
X015349Y014775
X015849Y015775
X016349Y014775
X014849Y015775
X013849Y015775
X005927Y014975
X014349Y014775
T104
X031345Y010878
X020352Y010878
X023345Y010878
X034345Y010878
X020355Y000875
X033345Y010878
X037345Y010878
X022353Y000875
X028349Y000875
X032345Y010878
X026349Y000875
X021354Y000875
X031349Y000875
X021351Y010878
X025345Y010878
X024349Y000875
X022350Y010878
X027345Y010878
X035345Y010878
X029349Y000875
X024345Y010878
X035349Y000875
X038345Y010878
X026345Y010878
X037349Y000875
X029345Y010878
X032349Y000875
X030349Y000875
X030345Y010878
X036345Y010878
X023349Y000875
X033349Y000875
X038349Y000875
X028345Y010878
X036349Y000875
X027349Y000875
X034349Y000875
X025349Y000875
T105
X027349Y001875
X026149Y001875
X020349Y008675
X029649Y014175
X029349Y002575
X028349Y001875
X018949Y011775
X007849Y012575
X026155Y005874
X034049Y014175
X004549Y015775
X032349Y008575
X013149Y009375
X020149Y012775
X024649Y014175
T00
M30
